<mxfile host="app.diagrams.net" agent="Mozilla/5.0 (Windows NT 10.0; Win64; x64) AppleWebKit/537.36 (KHTML, like Gecko) Chrome/140.0.0.0 Safari/537.36" version="28.2.0">
  <diagram name="Страница — 1" id="tKBoU2l7l_NxgEM6Od30">
    <mxGraphModel dx="1367" dy="1923" grid="1" gridSize="10" guides="1" tooltips="1" connect="1" arrows="1" fold="1" page="1" pageScale="1" pageWidth="827" pageHeight="1169" math="0" shadow="0">
      <root>
        <mxCell id="0" />
        <mxCell id="1" parent="0" />
        <mxCell id="kx4gWMD3x5BjnXCfjZkQ-1" value="" style="rounded=0;whiteSpace=wrap;html=1;" vertex="1" parent="1">
          <mxGeometry width="400" height="280" as="geometry" />
        </mxCell>
        <mxCell id="kx4gWMD3x5BjnXCfjZkQ-11" style="edgeStyle=orthogonalEdgeStyle;rounded=0;orthogonalLoop=1;jettySize=auto;html=1;entryX=0.5;entryY=0;entryDx=0;entryDy=0;curved=1;exitX=0.5;exitY=0;exitDx=0;exitDy=0;" edge="1" parent="1" source="kx4gWMD3x5BjnXCfjZkQ-2" target="kx4gWMD3x5BjnXCfjZkQ-13">
          <mxGeometry relative="1" as="geometry">
            <mxPoint x="629.9999999999995" y="10" as="targetPoint" />
          </mxGeometry>
        </mxCell>
        <mxCell id="kx4gWMD3x5BjnXCfjZkQ-2" value="connect" style="rounded=0;whiteSpace=wrap;html=1;fillColor=#f8cecc;strokeColor=#b85450;" vertex="1" parent="1">
          <mxGeometry x="310" y="10" width="80" height="30" as="geometry" />
        </mxCell>
        <mxCell id="kx4gWMD3x5BjnXCfjZkQ-3" value="" style="endArrow=none;html=1;rounded=0;entryX=0.75;entryY=0;entryDx=0;entryDy=0;exitX=0.75;exitY=1;exitDx=0;exitDy=0;" edge="1" parent="1" source="kx4gWMD3x5BjnXCfjZkQ-1" target="kx4gWMD3x5BjnXCfjZkQ-1">
          <mxGeometry width="50" height="50" relative="1" as="geometry">
            <mxPoint x="250" y="220" as="sourcePoint" />
            <mxPoint x="300" y="170" as="targetPoint" />
          </mxGeometry>
        </mxCell>
        <mxCell id="kx4gWMD3x5BjnXCfjZkQ-6" value="disconnect" style="rounded=0;whiteSpace=wrap;html=1;" vertex="1" parent="1">
          <mxGeometry x="310" y="50" width="80" height="30" as="geometry" />
        </mxCell>
        <mxCell id="kx4gWMD3x5BjnXCfjZkQ-7" value="send msg" style="rounded=0;whiteSpace=wrap;html=1;" vertex="1" parent="1">
          <mxGeometry x="310" y="220" width="80" height="30" as="geometry" />
        </mxCell>
        <mxCell id="kx4gWMD3x5BjnXCfjZkQ-8" value="Peers:&lt;div&gt;client_5312 (me)&lt;/div&gt;" style="text;html=1;align=center;verticalAlign=middle;whiteSpace=wrap;rounded=0;" vertex="1" parent="1">
          <mxGeometry x="300" y="135" width="100" height="30" as="geometry" />
        </mxCell>
        <mxCell id="kx4gWMD3x5BjnXCfjZkQ-9" value="Chat" style="text;html=1;align=center;verticalAlign=middle;whiteSpace=wrap;rounded=0;" vertex="1" parent="1">
          <mxGeometry x="110" y="30" width="60" height="30" as="geometry" />
        </mxCell>
        <mxCell id="kx4gWMD3x5BjnXCfjZkQ-43" style="edgeStyle=orthogonalEdgeStyle;rounded=0;orthogonalLoop=1;jettySize=auto;html=1;exitX=0.5;exitY=1;exitDx=0;exitDy=0;entryX=1;entryY=0.5;entryDx=0;entryDy=0;curved=1;" edge="1" parent="1" source="kx4gWMD3x5BjnXCfjZkQ-13" target="kx4gWMD3x5BjnXCfjZkQ-8">
          <mxGeometry relative="1" as="geometry">
            <mxPoint x="630" y="80" as="sourcePoint" />
            <Array as="points">
              <mxPoint x="660" y="270" />
              <mxPoint x="420" y="270" />
              <mxPoint x="420" y="150" />
            </Array>
          </mxGeometry>
        </mxCell>
        <mxCell id="kx4gWMD3x5BjnXCfjZkQ-13" value="1. Connect to a signaling server:&lt;div&gt;&lt;span style=&quot;white-space: pre;&quot;&gt;&#x9;&lt;/span&gt;webRtcController.OnConnectClicked() -&amp;gt;&amp;nbsp;&lt;/div&gt;&lt;div&gt;signalingClient.Connect():&lt;/div&gt;&lt;div&gt;&lt;span style=&quot;background-color: transparent;&quot;&gt;&amp;nbsp; &amp;nbsp; &amp;nbsp; &amp;nbsp; string fullUrl = $&quot;{serverUrl}?peer_id={peerIdPrefix}&amp;amp;room={roomCode}&quot;;&lt;/span&gt;&lt;div&gt;&amp;nbsp; &amp;nbsp; &amp;nbsp; &amp;nbsp; webSocket = new WebSocket(fullUrl);&amp;nbsp;&amp;nbsp;&lt;/div&gt;&lt;div&gt;&lt;span style=&quot;white-space: pre;&quot;&gt;&#x9;&lt;/span&gt;OnConnected?.Invoke(): -&amp;gt;&amp;nbsp;&lt;/div&gt;&lt;div&gt;webRtcController.OnSignalingConnected():&lt;/div&gt;&lt;div&gt;&lt;span style=&quot;white-space: pre;&quot;&gt;&#x9;&lt;/span&gt;UpdatePeerList();&lt;br&gt;&lt;/div&gt;&lt;div&gt;&lt;span style=&quot;white-space: pre;&quot;&gt;&#x9;&lt;/span&gt;&lt;br&gt;&lt;/div&gt;&lt;div&gt;&lt;br&gt;&lt;/div&gt;&lt;div&gt;&lt;br&gt;&lt;/div&gt;&lt;div&gt;&amp;nbsp; &amp;nbsp; &amp;nbsp; &amp;nbsp;&amp;nbsp;&lt;/div&gt;&lt;/div&gt;&lt;div&gt;&lt;span style=&quot;white-space: pre;&quot;&gt;&#x9;&lt;/span&gt;&lt;br&gt;&lt;/div&gt;" style="text;html=1;align=left;verticalAlign=top;whiteSpace=wrap;rounded=0;strokeColor=default;" vertex="1" parent="1">
          <mxGeometry x="440" y="10" width="440" height="230" as="geometry" />
        </mxCell>
        <mxCell id="kx4gWMD3x5BjnXCfjZkQ-21" value="&lt;b&gt;Host&lt;/b&gt;" style="text;html=1;align=center;verticalAlign=middle;whiteSpace=wrap;rounded=0;" vertex="1" parent="1">
          <mxGeometry x="110" width="60" height="30" as="geometry" />
        </mxCell>
        <mxCell id="kx4gWMD3x5BjnXCfjZkQ-23" value="" style="endArrow=none;html=1;rounded=0;exitX=0;exitY=0.093;exitDx=0;exitDy=0;exitPerimeter=0;" edge="1" parent="1" source="kx4gWMD3x5BjnXCfjZkQ-1">
          <mxGeometry width="50" height="50" relative="1" as="geometry">
            <mxPoint y="25" as="sourcePoint" />
            <mxPoint x="300" y="26" as="targetPoint" />
          </mxGeometry>
        </mxCell>
        <mxCell id="kx4gWMD3x5BjnXCfjZkQ-44" value="" style="rounded=0;whiteSpace=wrap;html=1;" vertex="1" parent="1">
          <mxGeometry x="920" width="400" height="280" as="geometry" />
        </mxCell>
        <mxCell id="kx4gWMD3x5BjnXCfjZkQ-45" value="connect" style="rounded=0;whiteSpace=wrap;html=1;" vertex="1" parent="1">
          <mxGeometry x="1230" y="10" width="80" height="30" as="geometry" />
        </mxCell>
        <mxCell id="kx4gWMD3x5BjnXCfjZkQ-46" value="" style="endArrow=none;html=1;rounded=0;entryX=0.75;entryY=0;entryDx=0;entryDy=0;exitX=0.75;exitY=1;exitDx=0;exitDy=0;" edge="1" parent="1" source="kx4gWMD3x5BjnXCfjZkQ-44" target="kx4gWMD3x5BjnXCfjZkQ-44">
          <mxGeometry width="50" height="50" relative="1" as="geometry">
            <mxPoint x="1170" y="220" as="sourcePoint" />
            <mxPoint x="1220" y="170" as="targetPoint" />
          </mxGeometry>
        </mxCell>
        <mxCell id="kx4gWMD3x5BjnXCfjZkQ-47" value="disconnect" style="rounded=0;whiteSpace=wrap;html=1;" vertex="1" parent="1">
          <mxGeometry x="1230" y="50" width="80" height="30" as="geometry" />
        </mxCell>
        <mxCell id="kx4gWMD3x5BjnXCfjZkQ-48" value="send msg" style="rounded=0;whiteSpace=wrap;html=1;" vertex="1" parent="1">
          <mxGeometry x="1230" y="220" width="80" height="30" as="geometry" />
        </mxCell>
        <mxCell id="kx4gWMD3x5BjnXCfjZkQ-50" value="Chat" style="text;html=1;align=center;verticalAlign=middle;whiteSpace=wrap;rounded=0;" vertex="1" parent="1">
          <mxGeometry x="1030" y="30" width="60" height="30" as="geometry" />
        </mxCell>
        <mxCell id="kx4gWMD3x5BjnXCfjZkQ-51" value="&lt;b&gt;Client&lt;/b&gt;" style="text;html=1;align=center;verticalAlign=middle;whiteSpace=wrap;rounded=0;" vertex="1" parent="1">
          <mxGeometry x="1030" width="60" height="30" as="geometry" />
        </mxCell>
        <mxCell id="kx4gWMD3x5BjnXCfjZkQ-52" value="" style="endArrow=none;html=1;rounded=0;exitX=0;exitY=0.093;exitDx=0;exitDy=0;exitPerimeter=0;" edge="1" parent="1" source="kx4gWMD3x5BjnXCfjZkQ-44">
          <mxGeometry width="50" height="50" relative="1" as="geometry">
            <mxPoint x="920" y="25" as="sourcePoint" />
            <mxPoint x="1220" y="26" as="targetPoint" />
          </mxGeometry>
        </mxCell>
        <mxCell id="kx4gWMD3x5BjnXCfjZkQ-53" value="" style="rounded=0;whiteSpace=wrap;html=1;" vertex="1" parent="1">
          <mxGeometry y="340" width="400" height="280" as="geometry" />
        </mxCell>
        <mxCell id="kx4gWMD3x5BjnXCfjZkQ-55" value="connect" style="rounded=0;whiteSpace=wrap;html=1;" vertex="1" parent="1">
          <mxGeometry x="310" y="350" width="80" height="30" as="geometry" />
        </mxCell>
        <mxCell id="kx4gWMD3x5BjnXCfjZkQ-56" value="" style="endArrow=none;html=1;rounded=0;entryX=0.75;entryY=0;entryDx=0;entryDy=0;exitX=0.75;exitY=1;exitDx=0;exitDy=0;" edge="1" parent="1" source="kx4gWMD3x5BjnXCfjZkQ-53" target="kx4gWMD3x5BjnXCfjZkQ-53">
          <mxGeometry width="50" height="50" relative="1" as="geometry">
            <mxPoint x="250" y="560" as="sourcePoint" />
            <mxPoint x="300" y="510" as="targetPoint" />
          </mxGeometry>
        </mxCell>
        <mxCell id="kx4gWMD3x5BjnXCfjZkQ-57" value="disconnect" style="rounded=0;whiteSpace=wrap;html=1;" vertex="1" parent="1">
          <mxGeometry x="310" y="390" width="80" height="30" as="geometry" />
        </mxCell>
        <mxCell id="kx4gWMD3x5BjnXCfjZkQ-58" value="send msg" style="rounded=0;whiteSpace=wrap;html=1;" vertex="1" parent="1">
          <mxGeometry x="310" y="560" width="80" height="30" as="geometry" />
        </mxCell>
        <mxCell id="kx4gWMD3x5BjnXCfjZkQ-59" value="Peers:&lt;div&gt;client_5312 (me)&lt;/div&gt;&lt;div&gt;client_5213&lt;/div&gt;" style="text;html=1;align=center;verticalAlign=middle;whiteSpace=wrap;rounded=0;" vertex="1" parent="1">
          <mxGeometry x="300" y="490" width="100" height="30" as="geometry" />
        </mxCell>
        <mxCell id="kx4gWMD3x5BjnXCfjZkQ-60" value="Chat" style="text;html=1;align=center;verticalAlign=middle;whiteSpace=wrap;rounded=0;" vertex="1" parent="1">
          <mxGeometry x="110" y="370" width="60" height="30" as="geometry" />
        </mxCell>
        <mxCell id="kx4gWMD3x5BjnXCfjZkQ-63" value="&lt;b&gt;Host&lt;/b&gt;" style="text;html=1;align=center;verticalAlign=middle;whiteSpace=wrap;rounded=0;" vertex="1" parent="1">
          <mxGeometry x="110" y="340" width="60" height="30" as="geometry" />
        </mxCell>
        <mxCell id="kx4gWMD3x5BjnXCfjZkQ-64" value="" style="endArrow=none;html=1;rounded=0;exitX=0;exitY=0.093;exitDx=0;exitDy=0;exitPerimeter=0;" edge="1" parent="1" source="kx4gWMD3x5BjnXCfjZkQ-53">
          <mxGeometry width="50" height="50" relative="1" as="geometry">
            <mxPoint y="365" as="sourcePoint" />
            <mxPoint x="300" y="366" as="targetPoint" />
          </mxGeometry>
        </mxCell>
        <mxCell id="kx4gWMD3x5BjnXCfjZkQ-65" value="" style="rounded=0;whiteSpace=wrap;html=1;" vertex="1" parent="1">
          <mxGeometry x="920" y="340" width="400" height="280" as="geometry" />
        </mxCell>
        <mxCell id="kx4gWMD3x5BjnXCfjZkQ-75" style="edgeStyle=orthogonalEdgeStyle;rounded=0;orthogonalLoop=1;jettySize=auto;html=1;exitX=0.5;exitY=0;exitDx=0;exitDy=0;entryX=0.5;entryY=0;entryDx=0;entryDy=0;curved=1;" edge="1" parent="1" source="kx4gWMD3x5BjnXCfjZkQ-66" target="kx4gWMD3x5BjnXCfjZkQ-74">
          <mxGeometry relative="1" as="geometry">
            <Array as="points">
              <mxPoint x="1270" y="310" />
              <mxPoint x="660" y="310" />
            </Array>
          </mxGeometry>
        </mxCell>
        <mxCell id="kx4gWMD3x5BjnXCfjZkQ-66" value="connect" style="rounded=0;whiteSpace=wrap;html=1;fillColor=#f8cecc;strokeColor=#b85450;" vertex="1" parent="1">
          <mxGeometry x="1230" y="350" width="80" height="30" as="geometry" />
        </mxCell>
        <mxCell id="kx4gWMD3x5BjnXCfjZkQ-67" value="" style="endArrow=none;html=1;rounded=0;entryX=0.75;entryY=0;entryDx=0;entryDy=0;exitX=0.75;exitY=1;exitDx=0;exitDy=0;" edge="1" parent="1" source="kx4gWMD3x5BjnXCfjZkQ-65" target="kx4gWMD3x5BjnXCfjZkQ-65">
          <mxGeometry width="50" height="50" relative="1" as="geometry">
            <mxPoint x="1170" y="560" as="sourcePoint" />
            <mxPoint x="1220" y="510" as="targetPoint" />
          </mxGeometry>
        </mxCell>
        <mxCell id="kx4gWMD3x5BjnXCfjZkQ-68" value="disconnect" style="rounded=0;whiteSpace=wrap;html=1;" vertex="1" parent="1">
          <mxGeometry x="1230" y="390" width="80" height="30" as="geometry" />
        </mxCell>
        <mxCell id="kx4gWMD3x5BjnXCfjZkQ-69" value="send msg" style="rounded=0;whiteSpace=wrap;html=1;" vertex="1" parent="1">
          <mxGeometry x="1230" y="560" width="80" height="30" as="geometry" />
        </mxCell>
        <mxCell id="kx4gWMD3x5BjnXCfjZkQ-71" value="Chat" style="text;html=1;align=center;verticalAlign=middle;whiteSpace=wrap;rounded=0;" vertex="1" parent="1">
          <mxGeometry x="1030" y="370" width="60" height="30" as="geometry" />
        </mxCell>
        <mxCell id="kx4gWMD3x5BjnXCfjZkQ-72" value="&lt;b&gt;Client&lt;/b&gt;" style="text;html=1;align=center;verticalAlign=middle;whiteSpace=wrap;rounded=0;" vertex="1" parent="1">
          <mxGeometry x="1030" y="340" width="60" height="30" as="geometry" />
        </mxCell>
        <mxCell id="kx4gWMD3x5BjnXCfjZkQ-73" value="" style="endArrow=none;html=1;rounded=0;exitX=0;exitY=0.093;exitDx=0;exitDy=0;exitPerimeter=0;" edge="1" parent="1" source="kx4gWMD3x5BjnXCfjZkQ-65">
          <mxGeometry width="50" height="50" relative="1" as="geometry">
            <mxPoint x="920" y="365" as="sourcePoint" />
            <mxPoint x="1220" y="366" as="targetPoint" />
          </mxGeometry>
        </mxCell>
        <mxCell id="kx4gWMD3x5BjnXCfjZkQ-74" value="1. Connect to a signaling server:&lt;div&gt;&lt;span style=&quot;background-color: transparent;&quot;&gt;&amp;nbsp; &amp;nbsp; &amp;nbsp; &amp;nbsp; string fullUrl = $&quot;{serverUrl}?peer_id={peerIdPrefix}&amp;amp;room={roomCode}&quot;;&lt;/span&gt;&lt;div&gt;&amp;nbsp; &amp;nbsp; &amp;nbsp; &amp;nbsp; webSocket = new WebSocket(fullUrl);&lt;/div&gt;&lt;div&gt;2. Update peer list&lt;/div&gt;&lt;/div&gt;" style="text;html=1;align=left;verticalAlign=top;whiteSpace=wrap;rounded=0;strokeColor=default;" vertex="1" parent="1">
          <mxGeometry x="440" y="340" width="440" height="70" as="geometry" />
        </mxCell>
        <mxCell id="kx4gWMD3x5BjnXCfjZkQ-76" value="Peers:&lt;div&gt;client_5313 (me)&lt;/div&gt;&lt;div&gt;client_5312&lt;/div&gt;" style="text;html=1;align=center;verticalAlign=middle;whiteSpace=wrap;rounded=0;" vertex="1" parent="1">
          <mxGeometry x="1220" y="500" width="100" height="30" as="geometry" />
        </mxCell>
      </root>
    </mxGraphModel>
  </diagram>
</mxfile>
